<?xml version="1.0" encoding="UTF-8" standalone="no"?>
<!-- Created with Inkscape (http://www.inkscape.org/) -->

<svg
   xmlns:dc="http://purl.org/dc/elements/1.1/"
   xmlns:cc="http://creativecommons.org/ns#"
   xmlns:rdf="http://www.w3.org/1999/02/22-rdf-syntax-ns#"
   xmlns:svg="http://www.w3.org/2000/svg"
   xmlns="http://www.w3.org/2000/svg"
   xmlns:sodipodi="http://sodipodi.sourceforge.net/DTD/sodipodi-0.dtd"
   xmlns:inkscape="http://www.inkscape.org/namespaces/inkscape"
   version="1.1"
   width="25"
   height="25"
   id="svg2816"
   inkscape:version="0.47 r22583"
   sodipodi:docname="skull4.svg">
  <metadata
     id="metadata4846">
    <rdf:RDF>
      <cc:Work
         rdf:about="">
        <dc:format>image/svg+xml</dc:format>
        <dc:type
           rdf:resource="http://purl.org/dc/dcmitype/StillImage" />
        <dc:title></dc:title>
      </cc:Work>
    </rdf:RDF>
  </metadata>
  <sodipodi:namedview
     pagecolor="#ffffff"
     bordercolor="#666666"
     borderopacity="1"
     objecttolerance="10"
     gridtolerance="10"
     guidetolerance="10"
     inkscape:pageopacity="0"
     inkscape:pageshadow="2"
     inkscape:window-width="1035"
     inkscape:window-height="814"
     id="namedview4844"
     showgrid="false"
     inkscape:zoom="10.2"
     inkscape:cx="12.5"
     inkscape:cy="17.012784"
     inkscape:window-x="0"
     inkscape:window-y="0"
     inkscape:window-maximized="0"
     inkscape:current-layer="svg2816" />
  <defs
     id="defs2820">
    <inkscape:perspective
       sodipodi:type="inkscape:persp3d"
       inkscape:vp_x="0 : 12.5 : 1"
       inkscape:vp_y="0 : 1000 : 0"
       inkscape:vp_z="25 : 12.5 : 1"
       inkscape:persp3d-origin="12.5 : 8.3333333 : 1"
       id="perspective4848" />
    <inkscape:perspective
       id="perspective2860"
       inkscape:persp3d-origin="0.5 : 0.33333333 : 1"
       inkscape:vp_z="1 : 0.5 : 1"
       inkscape:vp_y="0 : 1000 : 0"
       inkscape:vp_x="0 : 0.5 : 1"
       sodipodi:type="inkscape:persp3d" />
    <inkscape:perspective
       id="perspective2901"
       inkscape:persp3d-origin="0.5 : 0.33333333 : 1"
       inkscape:vp_z="1 : 0.5 : 1"
       inkscape:vp_y="0 : 1000 : 0"
       inkscape:vp_x="0 : 0.5 : 1"
       sodipodi:type="inkscape:persp3d" />
    <inkscape:perspective
       id="perspective2923"
       inkscape:persp3d-origin="0.5 : 0.33333333 : 1"
       inkscape:vp_z="1 : 0.5 : 1"
       inkscape:vp_y="0 : 1000 : 0"
       inkscape:vp_x="0 : 0.5 : 1"
       sodipodi:type="inkscape:persp3d" />
    <inkscape:perspective
       id="perspective2963"
       inkscape:persp3d-origin="0.5 : 0.33333333 : 1"
       inkscape:vp_z="1 : 0.5 : 1"
       inkscape:vp_y="0 : 1000 : 0"
       inkscape:vp_x="0 : 0.5 : 1"
       sodipodi:type="inkscape:persp3d" />
  </defs>
  <path
     style="fill:#806600;stroke:#000000;stroke-width:0.91160481999999998px;stroke-linecap:butt;stroke-linejoin:miter;stroke-opacity:1"
     d="M 9.2483862,15.37941 C 4.897909,13.682933 4.5871603,12.217794 4.5871603,12.217794 c 0,0 -2.0716555,-0.848239 -2.3824044,0.154224 -0.3107476,1.002464 -1.45015901,1.696478 -1.45015901,1.696478 0,0 -0.82866161,1.773589 0.41433131,1.850702 1.242994,0.07711 3.6253982,-0.154225 3.6253982,-0.154225 0,0 2.5895694,0.848238 4.0397285,1.696477 1.4501591,0.848238 6.6292981,3.547179 6.9400471,4.164079 0.310748,0.616901 -0.414331,2.698942 0.932246,3.007392 1.346575,0.30845 2.900318,0.6169 3.0039,-0.462676 0.103581,-1.079576 -0.725079,-1.927815 1.45016,-2.004927 2.175238,-0.07711 2.900317,-1.388026 2.900317,-1.388026 0,0 0.517914,-2.313379 -1.553741,-2.082041 -2.071657,0.231338 -4.350477,0.925352 -4.350477,0.925352 L 9.2483862,15.37941 z"
     id="path2878" />
  <path
     style="fill:#ffcc00;stroke:#000000;stroke-width:0.91412044000000003px;stroke-linecap:butt;stroke-linejoin:miter;stroke-opacity:1"
     d="m 16.229311,15.280291 c 4.47634,-1.657889 4.796079,-3.089702 4.796079,-3.089702 0,0 2.13159,-0.828944 2.45133,0.150717 0.319737,0.979662 1.492113,1.657889 1.492113,1.657889 0,0 0.852635,1.733247 -0.426319,1.808606 -1.278954,0.07536 -3.730284,-0.150717 -3.730284,-0.150717 0,0 -2.664488,0.828944 -4.156601,1.657888 -1.492113,0.828945 -6.8210896,3.466495 -7.1408286,4.069363 -0.3197379,0.602868 0.4263183,2.637551 -0.9592159,2.938984 C 7.1700516,24.624754 5.5713567,24.926188 5.4647774,23.871167 5.358197,22.816148 6.2108347,21.987203 3.972664,21.911845 1.7344945,21.836486 0.98843717,20.555391 0.98843717,20.555391 c 0,0 -0.53289756,-2.260758 1.59869273,-2.034682 2.1315913,0.226076 4.4763413,0.904303 4.4763413,0.904303 l 9.1658398,-4.144721 z"
     id="path2878-7" />
  <path
     style="fill:#806600;stroke:#000000;stroke-width:1px;stroke-linecap:butt;stroke-linejoin:miter;stroke-opacity:1"
     d="m 6.1190766,13.098044 c 0,0 3.0392158,4.803921 2.4509808,6.27451 -0.588236,1.470588 10.0980386,1.470588 9.6078426,0 -0.490196,-1.470589 -0.980392,-1.470589 -0.980392,-1.470589 0,0 0,-1.666666 1.078431,-3.529411 1.078431,-1.862745 0,-1.666667 0,-1.666667 0.05739,0.03921 -5.628881,0.13725 -12.1568624,0.392157 z"
     id="path2874-8"
     sodipodi:nodetypes="csscsc" />
  <path
     style="fill:#d4aa00;stroke:#000000;stroke-width:1px;stroke-linecap:butt;stroke-linejoin:miter;stroke-opacity:1"
     d="m 7.4916253,2.2769651 c 0,0 5.2941177,-4.215686 10.8823527,0.588235 5.588235,4.8039217 -1.372549,11.9607849 -1.372549,11.9607849 l -0.392157,2.254902 -6.9607837,0.09804 -0.588236,-2.058823 c 0,0 -3.8235287,-1.568628 -4.4117637,-6.1764712 C 4.0602526,4.3357891 6.3151543,3.4534361 7.4916253,2.2769651 z"
     id="path2838-4"
     sodipodi:nodetypes="csccccsc" />
  <path
     sodipodi:type="arc"
     style="color:#000000;fill:#000000;fill-opacity:1;fill-rule:nonzero;stroke:#000000;stroke-width:1px;stroke-linecap:butt;stroke-linejoin:miter;stroke-miterlimit:4;stroke-opacity:1;stroke-dasharray:none;stroke-dashoffset:0;marker:none;visibility:visible;display:inline;overflow:visible;enable-background:accumulate"
     id="path2840-0"
     sodipodi:cx="9.4117651"
     sodipodi:cy="11.372549"
     sodipodi:rx="1.3725491"
     sodipodi:ry="1.4705882"
     d="m 10.784314,11.372549 a 1.3725491,1.4705882 0 1 1 -2.745098,0 1.3725491,1.4705882 0 1 1 2.745098,0 z"
     transform="translate(0.23672359,-1.1544069)" />
  <path
     sodipodi:type="arc"
     style="color:#000000;fill:#000000;fill-opacity:1;fill-rule:nonzero;stroke:#000000;stroke-width:1px;stroke-linecap:butt;stroke-linejoin:miter;stroke-miterlimit:4;stroke-opacity:1;stroke-dasharray:none;stroke-dashoffset:0;marker:none;visibility:visible;display:inline;overflow:visible;enable-background:accumulate"
     id="path2842-9"
     sodipodi:cx="13.627451"
     sodipodi:cy="9.9019604"
     sodipodi:rx="2.0588236"
     sodipodi:ry="2.1568627"
     d="m 15.686275,9.9019604 a 2.0588236,2.1568627 0 1 1 -4.117648,0 2.0588236,2.1568627 0 1 1 4.117648,0 z"
     transform="translate(1.7073116,-0.66421104)" />
  <path
     style="fill:none;stroke:#000000;stroke-width:1px;stroke-linecap:butt;stroke-linejoin:miter;stroke-opacity:1"
     d="m 10.53084,15.218142 c 0.882354,-2.058824 2.254902,-1.372548 2.254902,-1.372548"
     id="path2850-4"
     sodipodi:nodetypes="cc" />
  <path
     style="fill:none;stroke:#000000;stroke-width:1px;stroke-linecap:butt;stroke-linejoin:miter;stroke-opacity:1"
     d="M 15.6779,15.273044 C 14.795546,13.21422 13.422998,13.900496 13.422998,13.900496"
     id="path2850-1-8"
     sodipodi:nodetypes="cc" />
  <path
     style="fill:#aa8800;stroke:#000000;stroke-width:1px;stroke-linecap:butt;stroke-linejoin:miter;stroke-opacity:1"
     d="m 10.138684,17.473044 0.490196,1.568627 1.17647,0 0.686275,-1.862745 1.176471,0.09804 0.392156,1.274509 1.27451,0.09804 0.196079,-1.666667 1.17647,0.09804 0.196079,1.372549"
     id="path2876-2" />
  <path
     style="fill:#000000;stroke:#000000;stroke-width:0.77968609px;stroke-linecap:butt;stroke-linejoin:miter;stroke-opacity:1"
     d="m 12.340824,7.0934077 c 0,0 0.303462,3.6198573 1.365582,4.3900403 1.062121,0.770181 3.338093,1.001236 3.793288,0.308072 0.455195,-0.693165 1.517315,-3.5428387 0.986255,-4.3130211 -0.53106,-0.7701823 -5.993394,-0.6161458 -6.145125,-0.3850912 z"
     id="path2836" />
  <path
     style="fill:#ff0000;stroke:#000000;stroke-width:1px;stroke-linecap:butt;stroke-linejoin:miter;stroke-opacity:1"
     d="m 4.4117647,6.9607843 c 0,0 13.0392153,-0.9803921 16.4705883,0.5882353"
     id="path2838"
     sodipodi:nodetypes="cs" />
  <path
     style="fill:#ff0000;stroke:#800000;stroke-width:1px;stroke-linecap:butt;stroke-linejoin:miter;stroke-opacity:1"
     d="M 5.0980392,5.0980392 C 20.098039,5.5882353 20.784314,6.0784314 20.784314,6.0784314 c 0,0 -1.27451,-5.88235297 -8.137255,-5.78431375 C 5.7843137,0.39215686 5,5.3921569 5.0980392,5.0980392 z"
     id="path2840" />
  <path
     style="fill:#ff0000;stroke:#800000;stroke-width:1px;stroke-linecap:butt;stroke-linejoin:miter;stroke-opacity:1"
     d="m 22.745098,6.9607843 -1.078431,-1.4705882 -1.176471,1.9607843 1.470588,0.8823529 0.784314,-1.372549 z"
     id="path2842" />
  <path
     style="fill:#ff0000;stroke:#800000;stroke-width:1px;stroke-linecap:butt;stroke-linejoin:miter;stroke-opacity:1"
     d="M 21.568627,7.9411765 20.294118,14.411765 21.764706,17.54902 21.568627,7.9411765 z"
     id="path2844" />
  <path
     style="fill:#280b0b;stroke:#000000;stroke-width:1px;stroke-linecap:butt;stroke-linejoin:miter;stroke-opacity:1"
     d="M 4.0196078,23.235294 3.0392157,17.745098 4.6078431,17.45098 5.1960784,22.745098 4.0196078,23.235294 z"
     id="path2846" />
  <path
     style="fill:#280b0b;stroke:#000000;stroke-width:1px;stroke-linecap:butt;stroke-linejoin:miter;stroke-opacity:1"
     d="M 3.5294118,17.54902 0.39215686,16.862745 8.1372549,15.196078 3.5294118,17.54902 z"
     id="path2848" />
  <path
     style="fill:#808080;stroke:#000000;stroke-width:1px;stroke-linecap:butt;stroke-linejoin:miter;stroke-opacity:1"
     d="M 2.9411765,16.078431 C 2.6470588,14.215686 0.78431373,4.0196078 0.78431373,4.0196078 L 2.8431373,0.49019608 4.7058824,4.1176471 4.2156863,16.078431 l -1.2745098,0 z"
     id="path2850" />
</svg>
